PathFileType	4	(X/Y/Z)	/Users/niels/Desktop/University/Third Semester/Perception and Action/Exam/Gymnastics Motion Tracking/Code for Gym Tracking/Analyzed Data/Webcam_Backflip/id4_2_baseline_Sports2D/id4_2_baseline_Sports2D_px_person00.trc
DataRate	CameraRate	NumFrames	NumMarkers	Units	OrigDataRate	OrigDataStartFrame	OrigNumFrames
29.81132075471698	29.81132075471698	11	22	m	29.81132075471698	139	159
Frame#	Time	Hip			RHip			RKnee			RAnkle			RBigToe			RSmallToe			RHeel			LHip			LKnee			LAnkle			LBigToe			LSmallToe			LHeel			Neck			Head			Nose			RShoulder			RElbow			RWrist			LShoulder			LElbow			LWrist		
		X1	Y1	Z1	X2	Y2	Z2	X3	Y3	Z3	X4	Y4	Z4	X5	Y5	Z5	X6	Y6	Z6	X7	Y7	Z7	X8	Y8	Z8	X9	Y9	Z9	X10	Y10	Z10	X11	Y11	Z11	X12	Y12	Z12	X13	Y13	Z13	X14	Y14	Z14	X15	Y15	Z15	X16	Y16	Z16	X17	Y17	Z17	X18	Y18	Z18	X19	Y19	Z19	X20	Y20	Z20	X21	Y21	Z21	X22	Y22	Z22
139	4.662658227848101	0.9429311215520872	-0.5787217494229994	0.0	0.9429923646606645	-0.5764973562905024	0.0	0.9395559124360968	-0.6886362189547273	0.0	0.9292444615050572	-0.793932942256044	0.0	0.955231519968008	-0.8162500752072015	0.0	0.9493564270748028	-0.8185953681989598	0.0	0.9233251553445574	-0.8089937715542226	0.0	0.9412042669150067	-0.5742186565656371	0.0	0.9388513472679213	-0.6867115392353429	0.0	0.9283608890860031	-0.7893698510433056	0.0	0.9583949391564445	-0.8128799015147419	0.0	0.9554308151410927	-0.807154875071002	0.0	0.9212450873811688	-0.7997704023835939	0.0	0.9351515550312308	-0.42369214204429423	0.0	0.9528469266086872	-0.3475381046685034	0.0	0.9582313551620776	-0.38557923937001126	0.0	0.9330725119375574	-0.4295786289390272	0.0	0.97250501139875	-0.36553107261817125	0.0	0.9975556409234047	-0.30121854615474	0.0	0.9305115028507012	-0.4282023564023272	0.0	0.9692172566994741	-0.37141195354248807	0.0	0.9915487224755847	-0.3093212405740097	0.0
140	4.69620253164557	0.9424860916436174	-0.5805328804338655	0.0	0.9425662515267547	-0.5783833654901647	0.0	0.9396798487122381	-0.6898655910393574	0.0	0.9290331497982702	-0.795022466433925	0.0	0.9547330439987337	-0.8171820664061908	0.0	0.9488473672933717	-0.8194103120521634	0.0	0.9229777924163755	-0.8099890527123804	0.0	0.9409609611562735	-0.5758732892875761	0.0	0.9389815152311077	-0.6882480746531343	0.0	0.9283500250175105	-0.7906311504805417	0.0	0.9580147857314633	-0.8138953160376349	0.0	0.9548730205109904	-0.8082864730951655	0.0	0.9211354763550778	-0.8011405381329589	0.0	0.9345949502990297	-0.4253979992768082	0.0	0.9534652146214081	-0.34930600017666946	0.0	0.9580277299140791	-0.3874851682484922	0.0	0.9322326966077366	-0.4310172225480491	0.0	0.9720362230570535	-0.3672510550999708	0.0	0.9976820977517481	-0.30235717481585866	0.0	0.9296410326428628	-0.42967221651825666	0.0	0.9687489060722299	-0.37273458869715725	0.0	0.9916832410696914	-0.3110591802530698	0.0
141	4.729746835443038	0.9418434093172384	-0.5815505987502672	0.0	0.9419149276431815	-0.579427274288436	0.0	0.9400631715441172	-0.6902128326814126	0.0	0.9287092864770916	-0.7949347567391299	0.0	0.9540232939721967	-0.816869183239039	0.0	0.9483046871049942	-0.8189711936926045	0.0	0.9224678129192563	-0.8097209923672702	0.0	0.9407326697044398	-0.5768213721938412	0.0	0.9393942439843829	-0.6889302997058445	0.0	0.9281665599178814	-0.7908850415254908	0.0	0.957260533089496	-0.8139793274706446	0.0	0.9538844951874758	-0.8084902060546708	0.0	0.9208137016342484	-0.8014619417422809	0.0	0.9338153704304202	-0.42609278833773095	0.0	0.9543667417171511	-0.35012584524885637	0.0	0.9578416958441397	-0.3884364409011708	0.0	0.931199802264872	-0.43160189956554035	0.0	0.9717438973993066	-0.36818955245535323	0.0	0.9979562467441689	-0.302889268952067	0.0	0.9286251388160998	-0.4303319244178221	0.0	0.9682436739550976	-0.37339043020574114	0.0	0.9919588468204601	-0.3120766457362629	0.0
142	4.763291139240506	0.941007843725133	-0.5815464252308117	0.0	0.9410260800463245	-0.5794047337138561	0.0	0.9407770710824683	-0.6895860421957976	0.0	0.9283210084374318	-0.7937707332346452	0.0	0.9534437998797031	-0.8153752766409844	0.0	0.9479075487029014	-0.8173897743776491	0.0	0.9218203184381736	-0.8083845516903986	0.0	0.9404906847029604	-0.5768982226561135	0.0	0.9401817186573174	-0.6886544415466448	0.0	0.9278795283715426	-0.7901916742994993	0.0	0.9565046781369242	-0.8131323939442568	0.0	0.9528686614414821	-0.8077196206717825	0.0	0.9202222008141546	-0.8007711184622045	0.0	0.9328580957596295	-0.42567385714205397	0.0	0.955366640941434	-0.34993523907546287	0.0	0.9576247281620722	-0.38829782602908014	0.0	0.9300299345486677	-0.4313312373985081	0.0	0.9717456888362134	-0.36854901988772254	0.0	0.9981548566140144	-0.30315426693147396	0.0	0.927517979042388	-0.4301835547926893	0.0	0.9677215612114745	-0.373726731125128	0.0	0.9920613384180247	-0.31270563314067545	0.0
143	4.796835443037974	0.9400148028477087	-0.5803977348089205	0.0	0.939909357816858	-0.5782335498549985	0.0	0.9419340517180647	-0.6879668546916178	0.0	0.9279425790060335	-0.7917194804116775	0.0	0.953222616408716	-0.8127990284623005	0.0	0.9477014791965259	-0.8147806188704708	0.0	0.9210394334109065	-0.8061780711559579	0.0	0.9401813503296784	-0.5760101832717581	0.0	0.9414201221376943	-0.6873804199752495	0.0	0.927598087965214	-0.7886112451506448	0.0	0.956023674179069	-0.8112996323763109	0.0	0.9521754156599015	-0.805903685328889	0.0	0.9193717147660957	-0.799104750716762	0.0	0.9318238853114476	-0.4242236730667941	0.0	0.956319321350331	-0.3489034851063954	0.0	0.9573664141772184	-0.38715063833338714	0.0	0.9287370970499879	-0.4303133822010582	0.0	0.9721330506803082	-0.36878924981682853	0.0	0.9980985319523695	-0.30371412261913733	0.0	0.9263533272392199	-0.42932393095917387	0.0	0.9671379424528718	-0.3744981910572205	0.0	0.9915471857916066	-0.31366528511449865	0.0
144	4.830379746835443	0.9389220660932521	-0.5781300975015421	0.0	0.9385997731914207	-0.5760169704026992	0.0	0.9435921848466199	-0.6854401481534169	0.0	0.9276564684941352	-0.7889884911436038	0.0	0.9533736711512963	-0.809298664028026	0.0	0.9476138943263789	-0.8112985699747739	0.0	0.9201675970108472	-0.8032530148589622	0.0	0.9397709246410443	-0.5741847423161338	0.0	0.9430861952324214	-0.6851231120825021	0.0	0.9273900798128579	-0.7861927411123129	0.0	0.955922480133115	-0.8084462031458718	0.0	0.9519176738278045	-0.8030565350377861	0.0	0.9183487248825571	-0.7965048012032556	0.0	0.9308177389351382	-0.4220378973130513	0.0	0.9572209111552323	-0.3474613299872493	0.0	0.9571196457926999	-0.38538175820575366	0.0	0.9272884498033224	-0.42878397534859714	0.0	0.9729396802122858	-0.3696502327123573	0.0	0.9976779335498894	-0.30536210121906765	0.0	0.9251717957541742	-0.4279635173385069	0.0	0.9663093533675791	-0.3768852548130404	0.0	0.9898927173142199	-0.3161138313403637	0.0
145	4.863924050632911	0.9377865065467388	-0.5749291601644828	0.0	0.9371582444311396	-0.5730331058794805	0.0	0.945648606360461	-0.6822126088046917	0.0	0.927491033242286	-0.785839987922364	0.0	0.9538082909576177	-0.805232877922906	0.0	0.9475960391693031	-0.8072845047255339	0.0	0.9192812006904417	-0.7998581753019852	0.0	0.9392797140575602	-0.57158211306118	0.0	0.945007688453281	-0.6820228034327666	0.0	0.9272464789648093	-0.7831137691288753	0.0	0.9562395399122836	-0.8047553309182045	0.0	0.9520726539893729	-0.7994294339522737	0.0	0.9172567523764589	-0.7931671144319907	0.0	0.9298912965911399	-0.41957894596808687	0.0	0.9581569036577855	-0.34619755740434255	0.0	0.9570066723460495	-0.3836005769786692	0.0	0.9256914862548299	-0.42704836106613975	0.0	0.9741317046593836	-0.3720171465088291	0.0	0.9968542160247905	-0.309011893898837	0.0	0.9240173889625	-0.42642867947137225	0.0	0.9649280651957424	-0.38230639656049725	0.0	0.9866170256992965	-0.32163916396038605	0.0
146	4.897468354430379	0.9366401918895222	-0.5712031321874678	0.0	0.9356651486585223	-0.5697201006476867	0.0	0.9478233767202283	-0.6786685332927609	0.0	0.9274180448044612	-0.782653454312118	0.0	0.9544449057864287	-0.8011987501130146	0.0	0.9476739154362701	-0.8032991997754743	0.0	0.9184699278353017	-0.796420712111994	0.0	0.9387877253744447	-0.5685085257575762	0.0	0.9469158203956036	-0.6784445471339215	0.0	0.9271323255765954	-0.7797418291497206	0.0	0.957024067903046	-0.8007166513924843	0.0	0.9526394999697	-0.7955353099429575	0.0	0.9162010216300395	-0.7895198317555765	0.0	0.9290562021607348	-0.4173382264632048	0.0	0.9592160586458689	-0.3456300977412111	0.0	0.9572062454646414	-0.3824180775753337	0.0	0.9240735177157239	-0.4254230083249524	0.0	0.975593945584661	-0.37662963289807483	0.0	0.9956829220620445	-0.31538924481982583	0.0	0.9228845932321745	-0.425073678107203	0.0	0.962575480562103	-0.39199245867626525	0.0	0.9814465320215325	-0.3319886595348217	0.0
147	4.931012658227848	0.9354963962900466	-0.5675802933273012	0.0	0.9341948787631303	-0.5666154099773295	0.0	0.9497388030479771	-0.675343135320742	0.0	0.9274067857276712	-0.779883358079311	0.0	0.9552632089072733	-0.7978557880805628	0.0	0.9478998863552346	-0.7999567621435097	0.0	0.9178595591872407	-0.7934250739872527	0.0	0.9384033212989152	-0.5654068924851637	0.0	0.9485687057654673	-0.6749520218260112	0.0	0.9270588568316336	-0.7765451168628734	0.0	0.9582897741199066	-0.796978659057529	0.0	0.953636532479932	-0.7920000820639717	0.0	0.9153308424411064	-0.7861297081257098	0.0	0.9283369594995684	-0.4156733080037857	0.0	0.960514393760783	-0.3460267892605183	0.0	0.9579286018740892	-0.38225981772056034	0.0	0.9226445572937424	-0.4241921905580494	0.0	0.9770903385388677	-0.383885057726267	0.0	0.9943300560527624	-0.3247420909723392	0.0	0.9217012665453117	-0.42411689457654334	0.0	0.9587689397166412	-0.40631489177143565	0.0	0.9744652707225558	-0.3482926636814506	0.0
148	4.964556962025316	0.9343883655150309	-0.5646999440257043	0.0	0.9327909037780253	-0.5642092129847796	0.0	0.9510443480436293	-0.6727512929310671	0.0	0.9274374409429361	-0.7779481261044726	0.0	0.9563339150532801	-0.7956702998090027	0.0	0.9483542555761413	-0.7977169523670085	0.0	0.9175909109029956	-0.7912884642819226	0.0	0.9382115132825755	-0.5627837477785052	0.0	0.9498732079349521	-0.6721207441167739	0.0	0.9270814056905942	-0.7739830754734077	0.0	0.9599827584554562	-0.7940970540631308	0.0	0.9550425113260873	-0.7893680350465134	0.0	0.9148070295970371	-0.7835536671329792	0.0	0.9278030462073332	-0.41471714447996316	0.0	0.9622053987245953	-0.34736367409649344	0.0	0.9593087657996827	-0.38329797177184494	0.0	0.9215822845478284	-0.42358964792606096	0.0	0.9782714740417316	-0.3938189788470048	0.0	0.9930030701617467	-0.33679486731028196	0.0	0.9204036539692412	-0.42360050378828973	0.0	0.9532162109353012	-0.4239970204352352	0.0	0.9661347461463042	-0.36981122179775694	0.0
149	4.998101265822784	0.933384135201341	-0.562993891173779	0.0	0.9314812755992251	-0.5628348048187977	0.0	0.9515547455931669	-0.6712272132154231	0.0	0.9274827462517411	-0.7771180491704911	0.0	0.9577441307384866	-0.7947814114583204	0.0	0.9491510069726982	-0.7967820225304181	0.0	0.9177233997956232	-0.7903171299954916	0.0	0.9382348130884747	-0.5611058537543133	0.0	0.9508956075699344	-0.6703447022828093	0.0	0.9272282351735142	-0.7724226100642586	0.0	0.9619828908833369	-0.7923870204723797	0.0	0.9567460237494044	-0.7879871394363784	0.0	0.9147008236162015	-0.7822283160315517	0.0	0.9275614879162928	-0.41445422992294134	0.0	0.9643657004408712	-0.3493995175545267	0.0	0.9612650807886658	-0.3854762864272315	0.0	0.9209482233708655	-0.42380873190676216	0.0	0.9788024730404765	-0.40607437823997855	0.0	0.9918393103494321	-0.350844888887575	0.0	0.9190367675072345	-0.4235481265854144	0.0	0.946277155649206	-0.44191798990682474	0.0	0.9572647000602461	-0.3925057314567933	0.0
